<svg xmlns="http://www.w3.org/2000/svg" viewBox="0 0 800.00201 800">
  <path d="M776.86316,343.72365l-316.69006-320-.15-.138c-1.384-1.386-2.853-2.679-4.332-3.958-.48-.422-.926-.882-1.415-1.289A79.61712,79.61712,0,0,0,412.469.55965l-.86206-.132c-.965-.094-1.96106-.094-2.942-.161-1.642-.111-3.281-.259-4.939-.27h-.417a79.10157,79.10157,0,0,0-7.96.4c-1.734.172-3.43.477-5.137.763-.858.142-1.734.221-2.587.4-2.06006.408-4.06494.944-6.06494,1.509-.488.136-.989.229-1.468.376-2.035.617-4.012,1.356-5.971,2.129-.45105.176-.91.315-1.357.5-1.853.762-3.64905,1.641-5.431,2.544-.537.268-1.094.5-1.625.785-1.635.871-3.2,1.845-4.76,2.823-.647.406-1.314.763-1.953,1.185-1.438.96-2.8,2.01-4.16395,3.059-.7.537-1.435,1.021-2.118,1.585-1.355,1.1-2.621,2.306-3.91,3.5-.574.541-1.2,1.027-1.766,1.59l-.259.26-.064.058L23.727,343.13863a80,80,0,0,0,112.553,113.718l187.036-185.114v448.257a80,80,0,0,0,159.993,1.49219q.007-.74616,0-1.49219v-445.434l179.82605,181.707a80.00067,80.00067,0,1,0,113.724-112.549"/>
</svg>
