<svg xmlns="http://www.w3.org/2000/svg" viewBox="0 0 800 800">
  <path d="M168.21318,214.24761a90.247,90.247,0,0,1,127.61463-1.88538q.95654.92871,1.88537,1.88538l52.238,52.936a70.50016,70.50016,0,0,0,50.17505,21h.00806a70.49987,70.49987,0,0,0,50.176-21l51.921-52.6a90.233,90.233,0,0,1,127.59449-1.90552q.96679.93851,1.90551,1.90552c36.2,36.679,36.2,96.364,0,133.044l-231.86718,234.942-231.6-235.218c-36.18994-36.749-36.218-96.458-.04895-133.1m563.875-99.526c-44.15991-44.749-102.8-69.394-165.11011-69.394s-120.954,24.648-165.109,69.392l-1.735,1.755-2.066-2.088c-44.162-44.751-102.8-69.388-165.11-69.388s-120.94494,24.645-165.109,69.391c-90.449,91.654-90.473,240.908-.057,332.705l281.775,286.174a70.49961,70.49961,0,0,0,50.195,21.063h.042a70.5063,70.5063,0,0,0,50.179-21l282.10009-285.844c90.5481-91.741,90.5481-241.018,0-332.761"/>
  <path d="M168.21318,214.24761a90.247,90.247,0,0,1,127.61463-1.88538q.95654.92871,1.88537,1.88538l52.238,52.936a70.50016,70.50016,0,0,0,50.17505,21h.00806a70.49987,70.49987,0,0,0,50.176-21l51.921-52.6a90.233,90.233,0,0,1,127.59449-1.90552q.96679.93851,1.90551,1.90552c36.2,36.679,36.2,96.364,0,133.044l-231.86718,234.942-231.6-235.218c-36.18994-36.749-36.218-96.458-.04895-133.1m563.875-99.526c-44.15991-44.749-102.8-69.394-165.11011-69.394s-120.954,24.648-165.109,69.392l-1.735,1.755-2.066-2.088c-44.162-44.751-102.8-69.388-165.11-69.388s-120.94494,24.645-165.109,69.391c-90.449,91.654-90.473,240.908-.057,332.705l281.775,286.174a70.49961,70.49961,0,0,0,50.195,21.063h.042a70.5063,70.5063,0,0,0,50.179-21l282.10009-285.844c90.5481-91.741,90.5481-241.018,0-332.761"/>
</svg>
