<svg xmlns="http://www.w3.org/2000/svg" viewBox="0 0 800.00098 800">
  <path d="M720.001,320.28786H538.567l90.71594-157.209A80.011,80.011,0,0,0,491.0415,82.479q-.16131.27676-.32055.55487l-90.72,157.215-90.714-157.215a80.014,80.014,0,0,0-138.73944,79.75171q.08441.14676.16943.29327l90.72,157.209H80.001a80.045,80.045,0,0,0,0,160.089h181.44l-90.72,157.21a80.01408,80.01408,0,0,0,138.57,80.046l90.71-157.21L490.72,717.63387a80.011,80.011,0,1,0,138.80933-79.6178q-.12286-.21461-.24732-.42822l-90.71606-157.21H720.001a80.045,80.045,0,0,0,0-160.089"/>
</svg>
