<?xml version="1.0" encoding="utf-8"?>
<!-- Generator: Adobe Illustrator 24.1.1, SVG Export Plug-In . SVG Version: 6.00 Build 0)  -->
<svg version="1.1" id="Layer_1" xmlns="http://www.w3.org/2000/svg" xmlns:xlink="http://www.w3.org/1999/xlink" x="0px" y="0px"
	 viewBox="0 0 222 30" style="enable-background:new 0 0 222 30;" xml:space="preserve">
<style type="text/css">
	.st0{fill:#FFFFFF;}
</style>
<path class="st0" d="M126.1,25.3c-3.4,0-6.1-2.8-6.2-6.2v-8.7h6.2c1.1,0,2-0.9,2-2s-0.9-2-2-2H120V2c0-1.1-0.9-2-2-2
	c-1.1,0-2,0.9-2,2c0,0,0,0,0,0v17.2c0,5.6,4.5,10.2,10.1,10.2c1.1,0,2-0.9,2-2S127.2,25.3,126.1,25.3 M105,28V17.1
	c0-3.4,2.8-6.2,6.2-6.2c1.1,0,2-0.9,2-2s-0.9-2-2-2c-5.6,0-10.1,4.6-10.1,10.2V28c0,1.1,0.9,2,2,2C104.1,30,105,29.1,105,28
	C105,28,105,28,105,28 M86.9,10.7c3,0,5.7,2,6.6,4.9H80.3C81.2,12.7,83.9,10.7,86.9,10.7 M95.9,26.6c0.8-0.8,0.8-2,0-2.8
	c-0.8-0.8-2-0.8-2.8,0l0,0c-3,3-7.8,3-10.8,0c-1.1-1.1-1.9-2.6-2.1-4.2h15.7c1.1,0,2-0.9,2-2c0-6-4.9-10.9-10.9-10.9
	c-6,0-10.9,4.9-10.9,10.9c0,0,0,0,0,0v0.8C76,24.8,81.2,30,87.7,30C90.8,30,93.7,28.8,95.9,26.6 M42.3,10.7c3,0,5.7,2,6.6,4.9H35.7
	C36.6,12.7,39.3,10.7,42.3,10.7 M51.3,26.6c0.8-0.8,0.8-2,0-2.8c-0.8-0.8-2-0.8-2.8,0c-3,3-7.8,3-10.8,0c-1.1-1.1-1.9-2.6-2.1-4.2
	h15.7c1.1,0,2-0.9,2-2c0-6-4.9-10.9-10.9-10.9c-6,0-10.9,4.9-10.9,10.9c0,0,0,0,0,0v0.8c0,6.4,5.2,11.7,11.6,11.7
	C46.2,30,49.1,28.8,51.3,26.6 M211.9,7.2c-2.2,0-4.4,0.7-6.2,2.1V2c0-1.1-0.9-2-2-2s-2,0.9-2,2c0,0,0,0,0,0v26c0,1.1,0.9,2,2,2
	s2-0.9,2-2c0,0,0,0,0,0V17.3c-0.1-3.4,2.6-6.2,6-6.3c3.4-0.1,6.2,2.6,6.3,6c0,0,0,0,0,0c0,0.1,0,0.1,0,0.2V28c0,1.1,0.9,2,2,2
	s2-0.9,2-2c0,0,0,0,0,0V17.3C222,11.7,217.5,7.2,211.9,7.2 M175.4,19.8V9c0-1.1-0.9-2-2-2c-1.1,0-2,0.9-2,2c0,0,0,0,0,0v10.9
	c0.1,3.4-2.6,6.2-6,6.3c-3.4,0.1-6.2-2.6-6.3-6c0-0.1,0-0.1,0-0.2V9c0-1.1-0.9-2-2-2c-1.1,0-2,0.9-2,2c0,0,0,0,0,0v10.9
	c0,5.6,4.5,10.2,10.1,10.2C170.8,30,175.3,25.5,175.4,19.8L175.4,19.8 M146.5,12.9c3,3,3,7.8,0,10.8c-3,3-7.8,3-10.8,0
	c-3-3-3-7.8,0-10.8c1.4-1.4,3.4-2.2,5.4-2.2C143.1,10.7,145.1,11.5,146.5,12.9 M149.4,26.6c4.6-4.5,4.6-11.9,0-16.5
	s-11.9-4.6-16.5,0c-4.6,4.5-4.6,11.9,0,16.5c2.2,2.2,5.2,3.4,8.2,3.4C144.2,30,147.2,28.8,149.4,26.6 M73.8,6.8c-1-0.4-2.2,0-2.6,1
	c0,0,0,0,0,0l0,0l-6.5,15l-6.5-15c-0.4-1-1.6-1.5-2.6-1.1c-1,0.4-1.5,1.6-1.1,2.6c0,0,0,0,0,0l0,0l8.3,19.3c0,0.1,0.1,0.2,0.2,0.3
	c0,0,0,0,0,0c0.1,0.1,0.1,0.2,0.2,0.2c0,0,0,0.1,0.1,0.1c0.1,0.1,0.1,0.1,0.2,0.2c0,0,0,0,0.1,0.1c0.1,0.1,0.2,0.1,0.3,0.2l0,0
	c0,0,0,0,0,0c0.1,0,0.2,0.1,0.3,0.1c0,0,0.1,0,0.1,0c0.1,0,0.2,0,0.3,0h0c0.1,0,0.2,0,0.3,0c0,0,0.1,0,0.1,0c0.1,0,0.2-0.1,0.3-0.1
	c0,0,0,0,0.1,0l0,0c0.1,0,0.2-0.1,0.3-0.2c0,0,0,0,0.1-0.1c0.1-0.1,0.1-0.1,0.2-0.2c0,0,0.1,0,0.1-0.1c0.1-0.1,0.1-0.1,0.2-0.2
	c0,0,0,0,0,0c0.1-0.1,0.1-0.2,0.2-0.3l8.3-19.3C75.3,8.4,74.8,7.2,73.8,6.8C73.8,6.8,73.8,6.8,73.8,6.8L73.8,6.8 M28.1,28V2
	c0-1.1-0.9-2-2-2s-2,0.9-2,2c0,0,0,0,0,0v26c0,1.1,0.9,2,2,2S28,29.1,28.1,28C28.1,28,28.1,28,28.1,28 M197.7,26.6
	c0.8-0.8,0.8-2,0-2.8c-0.8-0.8-2-0.8-2.8,0c-3,3-7.8,3-10.8,0c-3-3-3-7.8,0-10.8c3-3,7.8-3,10.8,0l0,0c0.8,0.8,2,0.8,2.8,0
	s0.8-2,0-2.8l0,0c-4.6-4.5-11.9-4.5-16.5,0c-4.5,4.6-4.5,11.9,0,16.5C185.8,31.1,193.2,31.1,197.7,26.6 M11.6,30
	C5.2,30,0,24.8,0,18.3S5.2,6.7,11.7,6.7c3.1,0,6,1.2,8.2,3.4c0.8,0.8,0.8,2,0,2.8s-2,0.8-2.8,0l0,0c-3-3-7.8-3-10.8,0s-3,7.8,0,10.8
	c3,3,7.8,3,10.8,0c0.8-0.8,2-0.8,2.8,0c0.8,0.8,0.8,2,0,2.8C17.7,28.8,14.7,30,11.6,30"/>
</svg>
