<svg xmlns="http://www.w3.org/2000/svg" viewBox="0 0 444.11653 53.19993">
  <path d="M88.71379,7.91891a2.2,2.2,0,0,1,2.46-2.52h2.64a2.2,2.2,0,0,1,2.46,2.52v29.94a6.47348,6.47348,0,0,0,.21,1.83,2.75183,2.75183,0,0,0,.57,1.08,1.9688,1.9688,0,0,0,.78.54,4.29982,4.29982,0,0,0,.84.21,2.30811,2.30811,0,0,1,1.35.63,2.07805,2.07805,0,0,1,.51,1.53v2.04a2.881,2.881,0,0,1-.57,1.89,2.4,2.4,0,0,1-1.95.69,17.44054,17.44054,0,0,1-3.18-.3,6.96953,6.96953,0,0,1-5.25-4.29,13.1,13.1,0,0,1-.87-5.25Zm14.7,24.78a15.69982,15.69982,0,0,1,1.32-6.45,15.18582,15.18582,0,0,1,3.6-5.07,16.90011,16.90011,0,0,1,5.34-3.3,18.4215,18.4215,0,0,1,13.08,0,17.27407,17.27407,0,0,1,5.37,3.3,14.9872,14.9872,0,0,1,3.63,5.07,15.70015,15.70015,0,0,1,1.32,6.45,15.64092,15.64092,0,0,1-1.32,6.48,15.38909,15.38909,0,0,1-3.63,5.07,16.55792,16.55792,0,0,1-5.37,3.3,18.86346,18.86346,0,0,1-13.08,0,16.21291,16.21291,0,0,1-5.34-3.3,15.51615,15.51615,0,0,1-4.92-11.55Zm7.74,0a10.11306,10.11306,0,0,0,.72,3.9,9.37084,9.37084,0,0,0,1.95,3,8.63791,8.63791,0,0,0,2.88,1.95,9.0894,9.0894,0,0,0,9.93-1.95,9.122,9.122,0,0,0,1.98-3,10.84112,10.84112,0,0,0,0-7.77,9.10585,9.10585,0,0,0-11.91-4.98,8.638,8.638,0,0,0-2.88,1.95,9.29393,9.29393,0,0,0-1.95,3.03A10.17484,10.17484,0,0,0,111.15379,32.69891Zm28.56-12.42a2.234,2.234,0,0,1,.06-2.1,2.172,2.172,0,0,1,1.92-.78h2.82a2.662,2.662,0,0,1,2.82,2.1l5.7,16.86a11.4,11.4,0,0,1,.42,1.5q.18.84.36,1.5.18.84.36,1.62h.12q.12-.78.3-1.62.12-.66.33-1.5a15.209,15.209,0,0,1,.45-1.5l5.7-16.86a2.662,2.662,0,0,1,2.82-2.1h2.82a2.257,2.257,0,0,1,1.95.78,2.169,2.169,0,0,1,.09,2.1l-9.24,25.68a2.709,2.709,0,0,1-2.82,2.04h-4.8a2.652,2.652,0,0,1-2.82-2.04Zm31.86,12.42a17.782,17.782,0,0,1,1.14-6.48,15.158,15.158,0,0,1,3.18-5.07,14.026,14.026,0,0,1,4.92-3.3,16.58406,16.58406,0,0,1,6.3-1.17,14.37425,14.37425,0,0,1,5.79,1.11,12.052,12.052,0,0,1,4.26,3.03,13.05608,13.05608,0,0,1,2.61,4.62,18.294,18.294,0,0,1,.9,5.82,2.61226,2.61226,0,0,1-2.64,2.58h-18.66a9.668,9.668,0,0,0,.99,3.66,8.36684,8.36684,0,0,0,4.86,4.2,10.28376,10.28376,0,0,0,3.33.54,10.50469,10.50469,0,0,0,3.81-.66,17.56267,17.56267,0,0,0,2.79-1.32,3.077,3.077,0,0,1,1.95-.36,2.285,2.285,0,0,1,1.41,1.2l.72,1.2a2.247,2.247,0,0,1-.84,3.36,25.1129,25.1129,0,0,1-4.14,2.01,16.84493,16.84493,0,0,1-6.24,1.05,17.44589,17.44589,0,0,1-6.84-1.29,15.57882,15.57882,0,0,1-5.19-3.48,15.16878,15.16878,0,0,1-3.27-5.1A16.709,16.709,0,0,1,171.57379,32.69891Zm21.54-3.48a7.329,7.329,0,0,0-1.83-5.01,5.788,5.788,0,0,0-4.35-1.77,6.8,6.8,0,0,0-4.89,1.86,8.659,8.659,0,0,0-2.49,4.92Zm28.08-9.3a2.2,2.2,0,0,1,2.46-2.52h2.34a2.2,2.2,0,0,1,2.46,2.52v1.86a4.38333,4.38333,0,0,1-.03.54,3.4406,3.4406,0,0,0-.03.42,1.76325,1.76325,0,0,0-.06.42h.12a10.639,10.639,0,0,1,1.5-2.28,12.40257,12.40257,0,0,1,5.13-3.6,9.52206,9.52206,0,0,1,3.39-.6q7.02,0,8.94,6.3h.12a10.22485,10.22485,0,0,1,1.65-2.34,12.30943,12.30943,0,0,1,2.4-2.01,13.10642,13.10642,0,0,1,2.97-1.41,10.74408,10.74408,0,0,1,3.42-.54q4.8,0,7.41,2.79t2.61,8.85v17.16a2.227,2.227,0,0,1-2.52,2.52h-2.58a2.227,2.227,0,0,1-2.52-2.52v-15.72a18.20768,18.20768,0,0,0-.15-2.43,5.41708,5.41708,0,0,0-.6-1.92,3.33217,3.33217,0,0,0-1.29-1.29,4.31808,4.31808,0,0,0-2.16-.48,6.361,6.361,0,0,0-3.39.9,7.81813,7.81813,0,0,0-2.46,2.4,10.99416,10.99416,0,0,0-1.47,3.42,16.01979,16.01979,0,0,0-.48,3.9v11.22a2.2,2.2,0,0,1-2.46,2.52h-2.64a2.227,2.227,0,0,1-2.52-2.52v-15.72a22.09458,22.09458,0,0,0-.12-2.37,5.3004,5.3004,0,0,0-.57-1.95,3.335,3.335,0,0,0-1.26-1.32,4.14793,4.14793,0,0,0-2.13-.48,6.42807,6.42807,0,0,0-3.51.93,8.019,8.019,0,0,0-2.46,2.46,11.41894,11.41894,0,0,0-1.47,3.42,15.42142,15.42142,0,0,0-.48,3.81v11.22a2.2,2.2,0,0,1-2.46,2.52h-2.64a2.2,2.2,0,0,1-2.46-2.52Zm51.54,19.62a8.425,8.425,0,0,1,.84-3.87,8.65384,8.65384,0,0,1,2.28-2.82,12.268,12.268,0,0,1,3.27-1.89,23.97475,23.97475,0,0,1,3.81-1.14,29.98146,29.98146,0,0,1,3.96-.57q1.98-.15,3.72-.15h1.26v-.72q0-3-1.68-4.2a6.73394,6.73394,0,0,0-4.02-1.2,11.13209,11.13209,0,0,0-3.6.57,17.05828,17.05828,0,0,0-2.76,1.17q-2.34,1.02-3.36-1.02l-.6-1.14a2.215,2.215,0,0,1,.96-3.36,30.20064,30.20064,0,0,1,4.05-1.65,18.50623,18.50623,0,0,1,5.97-.87q6,0,9.33,3.18t3.33,9v16.62a2.227,2.227,0,0,1-2.52,2.52h-2.04a2.2,2.2,0,0,1-2.46-2.52v-1.2a4.847,4.847,0,0,1,.06-.96.836.836,0,0,1,.06-.36h-.12a11.32278,11.32278,0,0,1-2.28,2.88,13.45638,13.45638,0,0,1-3,1.98,9.568,9.568,0,0,1-4.32.9,11.4999,11.4999,0,0,1-3.93-.66,10.017,10.017,0,0,1-3.21-1.86,8.887,8.887,0,0,1-2.19-2.88A8.593,8.593,0,0,1,272.73379,39.53891Zm7.56-.66a3.942,3.942,0,0,0,1.17,2.79,4.542,4.542,0,0,0,3.45,1.23,5.868,5.868,0,0,0,2.91-.72,7.09978,7.09978,0,0,0,2.19-1.89,9.39171,9.39171,0,0,0,1.41-2.61,8.41608,8.41608,0,0,0,.51-2.82v-1.14h-1.26q-1.44,0-3.24.18a15.21827,15.21827,0,0,0-3.39.72,7.20011,7.20011,0,0,0-2.67,1.56A3.54,3.54,0,0,0,280.29379,38.87891Zm26.28-18.96a2.2,2.2,0,0,1,2.46-2.52h2.34a2.227,2.227,0,0,1,2.52,2.52v2.88q0,.48-.03.84a5.86154,5.86154,0,0,1-.09.66,3.053,3.053,0,0,0-.06.6h.12a12.45727,12.45727,0,0,1,3.27-5.25,10.32979,10.32979,0,0,1,2.58-1.8,6.7999,6.7999,0,0,1,3.03-.69,2.162,2.162,0,0,1,1.77.63,2.96,2.96,0,0,1,.51,1.89v2.34a2.254,2.254,0,0,1-2.58,2.52,6.84206,6.84206,0,0,0-3.66.96,8.16405,8.16405,0,0,0-2.58,2.52,11.78721,11.78721,0,0,0-1.53,3.54,16.29075,16.29075,0,0,0-.51,4.08v9.84a2.2,2.2,0,0,1-2.46,2.52h-2.64a2.2,2.2,0,0,1-2.46-2.52Zm24.18,3.96h-1.62a2.2,2.2,0,0,1-2.46-2.52v-1.02a2.227,2.227,0,0,1,2.52-2.52h1.74v-6.24a2.227,2.227,0,0,1,2.52-2.52h2.4a2.227,2.227,0,0,1,2.52,2.52v6.24h4.44a2.227,2.227,0,0,1,2.52,2.52v1.02a2.2,2.2,0,0,1-2.46,2.52h-4.5v11.88a6.79093,6.79093,0,0,0,.48,2.79,4.894,4.894,0,0,0,1.2,1.68,4.3589,4.3589,0,0,0,1.59.9,7.53121,7.53121,0,0,0,1.65.33,3.23309,3.23309,0,0,1,1.95.66,2.4,2.4,0,0,1,.57,1.8v1.86a2.257,2.257,0,0,1-.78,1.95,3.95685,3.95685,0,0,1-2.34.57,15.339,15.339,0,0,1-4.17-.6,11.18307,11.18307,0,0,1-3.84-1.92,10.274,10.274,0,0,1-2.82-3.45,11.26382,11.26382,0,0,1-1.11-5.25Zm18.06,8.82a17.78333,17.78333,0,0,1,1.14-6.48,15.15917,15.15917,0,0,1,3.18-5.07,14.02611,14.02611,0,0,1,4.92-3.3,16.58417,16.58417,0,0,1,6.3-1.17,14.3743,14.3743,0,0,1,5.79,1.11,12.05214,12.05214,0,0,1,4.26,3.03,13.05623,13.05623,0,0,1,2.61,4.62,18.29488,18.29488,0,0,1,.9,5.82,2.61226,2.61226,0,0,1-2.64,2.58h-18.66a9.6672,9.6672,0,0,0,.99,3.66,8.36688,8.36688,0,0,0,4.86,4.2,10.28387,10.28387,0,0,0,3.33.54,10.50473,10.50473,0,0,0,3.81-.66,17.56149,17.56149,0,0,0,2.79-1.32,3.07705,3.07705,0,0,1,1.95-.36,2.28507,2.28507,0,0,1,1.41,1.2l.72,1.2a2.247,2.247,0,0,1-.84,3.36,25.1122,25.1122,0,0,1-4.14,2.01,16.84486,16.84486,0,0,1-6.24,1.05,17.44591,17.44591,0,0,1-6.84-1.29,15.579,15.579,0,0,1-5.19-3.48,15.16979,15.16979,0,0,1-3.27-5.1A16.70876,16.70876,0,0,1,348.81379,32.69891Zm21.54-3.48a7.329,7.329,0,0,0-1.83-5.01,5.788,5.788,0,0,0-4.35-1.77,6.8,6.8,0,0,0-4.89,1.86,8.659,8.659,0,0,0-2.49,4.92Zm11.16,3.48a16.33057,16.33057,0,0,1,1.17-6.15,15.32493,15.32493,0,0,1,3.33-5.1,15.84407,15.84407,0,0,1,5.25-3.48,17.668,17.668,0,0,1,6.87-1.29,15.80891,15.80891,0,0,1,6.18,1.05,22.06429,22.06429,0,0,1,3.84,2.01,2.15,2.15,0,0,1,1.05,1.53,2.95008,2.95008,0,0,1-.57,1.89l-.78,1.2a2.115,2.115,0,0,1-1.47,1.11,3.4619,3.4619,0,0,1-1.89-.45,12.7004,12.7004,0,0,0-2.46-1.26,9.326,9.326,0,0,0-3.48-.6,9.6,9.6,0,0,0-3.84.75,8.611,8.611,0,0,0-2.94,2.04,9.24234,9.24234,0,0,0-1.86,3,10.56122,10.56122,0,0,0,0,7.35,9.25426,9.25426,0,0,0,1.89,3.06,9.00694,9.00694,0,0,0,3,2.1,10.67188,10.67188,0,0,0,8.01,0,16.1637,16.1637,0,0,0,2.82-1.56q2.28-1.26,3.42.78l.6,1.14a2.3,2.3,0,0,1-.66,3.36,18.87155,18.87155,0,0,1-1.74,1.14,16.89,16.89,0,0,1-2.4,1.14,19.77153,19.77153,0,0,1-3.06.9,17.4721,17.4721,0,0,1-3.66.36,18.03778,18.03778,0,0,1-6.87-1.26,15.70711,15.70711,0,0,1-5.25-3.42,14.99975,14.99975,0,0,1-3.33-5.07,16.64948,16.64948,0,0,1-1.17005-6.27Zm33.72-24.78a2.227,2.227,0,0,1,2.52-2.52h2.58a2.227,2.227,0,0,1,2.52,2.52v12.36q0,.6-.03,1.05t-.09.81a5.19791,5.19791,0,0,0-.06.72h.12a10.16227,10.16227,0,0,1,1.53-2.19,12.1231,12.1231,0,0,1,2.34-2.01,11.98967,11.98967,0,0,1,3.06-1.44,12.191,12.191,0,0,1,3.69-.54q5.1,0,7.89,2.76t2.79,8.88v17.16a2.227,2.227,0,0,1-2.52,2.52h-2.58a2.227,2.227,0,0,1-2.52-2.52v-15.6a9.23427,9.23427,0,0,0-.96-4.53q-.96-1.71-3.84-1.71a8.38611,8.38611,0,0,0-3.63.78,8.17388,8.17388,0,0,0-2.79,2.13,9.777,9.777,0,0,0-1.77,3.21,12.45334,12.45334,0,0,0-.63,4.02v11.7a2.227,2.227,0,0,1-2.52,2.52h-2.58a2.227,2.227,0,0,1-2.52-2.52Z" fill="#fff"/>
  <path d="M12.60992,12.69285a6.768,6.768,0,0,1,9.57032-.1427q.07251.07032.1427.1427l3.918,3.97a5.28807,5.28807,0,0,0,3.76294,1.575h0a5.28807,5.28807,0,0,0,3.76293-1.575l3.89405-3.945a6.7671,6.7671,0,0,1,9.569-.14313q.07251.0705.14306.14313a7.13,7.13,0,0,1,0,9.978l-17.39,17.621-17.37-17.641a7.13811,7.13811,0,0,1,0-9.983m42.291-7.464a17.334,17.334,0,0,0-24.5127-.25329q-.128.12534-.25329.25329l-.13.132-.155-.157A17.33492,17.33492,0,0,0,5.33881,4.952q-.12726.12461-.252.25189a17.844,17.844,0,0,0,0,24.953l21.13306,21.463a5.28724,5.28724,0,0,0,3.765,1.58h0a5.2881,5.2881,0,0,0,3.76294-1.575l21.157-21.438a17.833,17.833,0,0,0,0-24.957" fill="#e72176"/>
  <path d="M12.60992,12.69285a6.768,6.768,0,0,1,9.57032-.1427q.07251.07032.1427.1427l3.918,3.97a5.28807,5.28807,0,0,0,3.76294,1.575h0a5.28807,5.28807,0,0,0,3.76293-1.575l3.89405-3.945a6.7671,6.7671,0,0,1,9.569-.14313q.07251.0705.14306.14313a7.13,7.13,0,0,1,0,9.978l-17.39,17.621-17.37-17.641a7.13811,7.13811,0,0,1,0-9.983m42.291-7.464a17.334,17.334,0,0,0-24.5127-.25329q-.128.12534-.25329.25329l-.13.132-.155-.157A17.33492,17.33492,0,0,0,5.33881,4.952q-.12726.12461-.252.25189a17.844,17.844,0,0,0,0,24.953l21.13306,21.463a5.28724,5.28724,0,0,0,3.765,1.58h0a5.2881,5.2881,0,0,0,3.76294-1.575l21.157-21.438a17.833,17.833,0,0,0,0-24.957" fill="#e72176"/>
</svg>
