<svg xmlns="http://www.w3.org/2000/svg" xmlns:xlink="http://www.w3.org/1999/xlink" viewBox="0 0 496.50358 170.9048">
  <defs>
    <linearGradient id="a" x1="340.56576" y1="161.93886" x2="251.60893" y2="213.2971" gradientTransform="matrix(0.86603, 0.5, 0.5, -0.86603, -54.1428, 65.95559)" gradientUnits="userSpaceOnUse">
      <stop offset="0.3" stop-color="#ff0380"/>
      <stop offset="1"/>
    </linearGradient>
    <linearGradient id="b" x1="277.18327" y1="162.01846" x2="188.22326" y2="213.36268" gradientTransform="matrix(0.86603, 0.5, 0.5, -0.86603, -62.66929, 97.6355)" xlink:href="#a"/>
  </defs>
  <path d="M46.03729,170.05349a3.04629,3.04629,0,0,1-2.99139-3.07372v-14.957c0-5.26924-1.70153-9.77-7.68432-9.77s-7.7392,4.36358-7.7392,9.68772v15.03929a3.07373,3.07373,0,1,1-6.12,0v-14.957c0-5.07715-1.50943-9.77-7.355-9.77s-8.01364,4.1715-8.01364,9.68772v15.03929a3.07373,3.07373,0,1,1-6.12,0v-27.444a2.74439,2.74439,0,0,1,2.7444-2.7444,2.88161,2.88161,0,0,1,2.88162,2.7444v1.56433a10.97754,10.97754,0,0,1,9.46819-4.3911,10.97754,10.97754,0,0,1,10.09938,5.4888,11.801,11.801,0,0,1,10.73061-5.4888c8.59,0,13.228,5.4888,13.228,13.722V166.8974a3.07375,3.07375,0,0,1-2.98975,3.1555Q46.10675,170.05472,46.03729,170.05349Z" fill="#fff"/>
  <path d="M95.903,170.90424a17.39949,17.39949,0,0,1-17.50911-17.28917l-.00014-.028A17.51137,17.51137,0,1,1,95.903,170.90424Zm0-28.65152a11.52676,11.52676,0,1,0,11.44413,11.47156,11.38923,11.38923,0,0,0-11.3065-11.4714Q95.97183,142.25239,95.903,142.25272Z" fill="#fff"/>
  <path d="M189.37722,170.05349a3.0463,3.0463,0,0,1-2.99139-3.07372v-14.957c0-5.26924-1.70153-9.77-7.68432-9.77s-7.7392,4.36358-7.7392,9.68772v15.03929a3.07373,3.07373,0,1,1-6.12,0v-14.957c0-5.07715-1.50943-9.77-7.355-9.77s-8.01364,4.1715-8.01364,9.68772v15.03929a3.06,3.06,0,1,1-6.12,0v-27.444a2.74439,2.74439,0,0,1,2.7444-2.7444,2.88161,2.88161,0,0,1,2.74439,2.7444v1.56433a12.06543,12.06543,0,0,1,19.4029,1.12521,11.801,11.801,0,0,1,10.73061-5.4888c8.59,0,13.228,5.4888,13.228,13.722v16.46639A3.07374,3.07374,0,0,1,189.37722,170.05349Z" fill="#fff"/>
  <path d="M254.72134,156.44125H227.85369a10.97763,10.97763,0,0,0,10.59338,8.8644,10.64832,10.64832,0,0,0,9.11143-5.15949,3.23836,3.23836,0,0,1,2.55227-1.56432,2.74436,2.74436,0,0,1,2.74439,2.74439,1.83861,1.83861,0,0,1-.19212.85076,16.4664,16.4664,0,0,1-14.51785,8.67231,16.93291,16.93291,0,0,1-16.46639-17.12506,16.56354,16.56354,0,1,1,33.12486-.38421A23.23964,23.23964,0,0,1,254.72134,156.44125ZM238.255,142.25272a10.37382,10.37382,0,0,0-10.48363,9.49563H248.7111a10.4287,10.4287,0,0,0-10.37383-9.49563Z" fill="#fff"/>
  <path d="M310.56986,170.05349a3.1012,3.1012,0,0,1-3.04629-3.07372V152.407c0-5.48879-1.75641-10.15426-8.06853-10.15426s-8.61741,4.69294-8.61741,10.09936v14.62765a3.01884,3.01884,0,0,1-6.03767.01014V139.53579a2.8816,2.8816,0,0,1,2.7444-2.88163,3.18353,3.18353,0,0,1,3.18351,2.88163v1.482a11.55391,11.55391,0,0,1,9.24861-4.36359c8.67231,0,13.55733,5.4888,13.55733,14.79231v15.4784A3.10117,3.10117,0,0,1,310.56986,170.05349Z" fill="#fff"/>
  <path d="M357.91073,143.2956h-4.36358v23.68417a3.04631,3.04631,0,0,1-2.99139,3.07372,3.211,3.211,0,0,1-3.07371-3.07372V143.2956h-4.30873a2.90911,2.90911,0,0,1-2.7444-2.7444,2.74437,2.74437,0,0,1,2.7444-2.74439h4.30873v-7.82156a3.10117,3.10117,0,0,1,3.07371-3.04628,2.964,2.964,0,0,1,2.99239,2.93523q.00057.05553-.001.11105v7.62943h4.36358a2.74437,2.74437,0,0,1,2.7444,2.7444A2.88163,2.88163,0,0,1,357.91073,143.2956Z" fill="#fff"/>
  <path d="M402.89142,170.90424c-10.2366,0-14.216-6.12-14.216-15.75286V140.63353a3.06,3.06,0,1,1,6.12,0v14.51785c0,5.4888,1.83874,10.15427,8.23319,10.15427s8.06854-4.55572,8.06854-10.15427V140.63353a3.07374,3.07374,0,0,1,3.04628-3.07371,3.156,3.156,0,0,1,3.07372,3.07371v14.51785C417.08,164.7842,413.04568,170.90424,402.89142,170.90424Z" fill="#fff"/>
  <path d="M493.67612,170.05349a3.04631,3.04631,0,0,1-2.99139-3.07372v-14.957c0-5.26924-1.67408-9.77-7.68432-9.77s-7.73922,4.36358-7.73922,9.68772v15.03929a3.07373,3.07373,0,1,1-6.12,0v-14.957c0-5.07715-1.482-9.77-7.355-9.77s-8.01364,4.1715-8.01364,9.68772v15.03929a3.07372,3.07372,0,1,1-6.12,0v-27.444a2.7444,2.7444,0,1,1,5.48879,0v1.56433a12.06541,12.06541,0,0,1,19.40288,1.12521,11.82837,11.82837,0,0,1,10.7306-5.4888c8.61741,0,13.228,5.4888,13.228,13.722v16.46639A3.07372,3.07372,0,0,1,493.67612,170.05349Z" fill="#fff"/>
  <rect x="272.19633" y="-4.2442" width="47.56043" height="111.23046" rx="23.7665" transform="translate(13.96782 154.87069) rotate(-30)" fill="#ff0380"/>
  <rect x="272.30514" y="-4.09791" width="47.56043" height="111.23046" rx="23.7665" transform="translate(13.90926 154.94469) rotate(-30)" fill="url(#a)"/>
  <rect x="208.57351" y="27.5927" width="111.23046" height="47.56043" rx="23.7665" transform="translate(87.60412 254.48062) rotate(-60)" fill="#ff0380"/>
  <rect x="208.81396" y="-4.2442" width="47.56043" height="111.23046" rx="23.7665" transform="translate(5.4762 123.1795) rotate(-30)" fill="#ff0380"/>
  <rect x="208.92273" y="-4.1729" width="47.56043" height="111.23046" rx="23.7665" transform="translate(5.45512 123.24344) rotate(-30)" fill="url(#b)"/>
  <rect x="145.16835" y="27.57892" width="111.23046" height="47.56043" rx="23.7665" transform="translate(55.91347 199.56325) rotate(-60)" fill="#ff0380"/>
</svg>
