<?xml version="1.0" encoding="UTF-8" standalone="no"?>
<svg
   xmlns:dc="http://purl.org/dc/elements/1.1/"
   xmlns:cc="http://creativecommons.org/ns#"
   xmlns:rdf="http://www.w3.org/1999/02/22-rdf-syntax-ns#"
   xmlns:svg="http://www.w3.org/2000/svg"
   xmlns="http://www.w3.org/2000/svg"
   xmlns:xlink="http://www.w3.org/1999/xlink"
   xmlns:sodipodi="http://sodipodi.sourceforge.net/DTD/sodipodi-0.dtd"
   xmlns:inkscape="http://www.inkscape.org/namespaces/inkscape"
   viewBox="0 0 174.74875 102.91"
   version="1.1"
   id="svg38"
   sodipodi:docname="momentum-logo-min.svg"
   width="174.74875"
   height="102.91"
   inkscape:version="1.0.1 (3bc2e813f5, 2020-09-07)">
  <metadata
     id="metadata42">
    <rdf:RDF>
      <cc:Work
         rdf:about="">
        <dc:format>image/svg+xml</dc:format>
        <dc:type
           rdf:resource="http://purl.org/dc/dcmitype/StillImage" />
        <dc:title></dc:title>
      </cc:Work>
    </rdf:RDF>
  </metadata>
  <sodipodi:namedview
     pagecolor="#ffffff"
     bordercolor="#666666"
     borderopacity="1"
     objecttolerance="10"
     gridtolerance="10"
     guidetolerance="10"
     inkscape:pageopacity="0"
     inkscape:pageshadow="2"
     inkscape:window-width="1920"
     inkscape:window-height="1001"
     id="namedview40"
     showgrid="false"
     inkscape:zoom="2.4471123"
     inkscape:cx="87.191687"
     inkscape:cy="85.469167"
     inkscape:window-x="-9"
     inkscape:window-y="-9"
     inkscape:window-maximized="1"
     inkscape:current-layer="svg38" />
  <defs
     id="defs8">
    <linearGradient
       id="a"
       x1="340.56577"
       y1="161.93886"
       x2="251.60893"
       y2="213.2971"
       gradientTransform="matrix(0.86603,0.5,0.5,-0.86603,-54.1428,65.95559)"
       gradientUnits="userSpaceOnUse">
      <stop
         offset="0.3"
         stop-color="#ff0380"
         id="stop2" />
      <stop
         offset="1"
         id="stop4" />
    </linearGradient>
    <linearGradient
       id="b"
       x1="277.18326"
       y1="162.01846"
       x2="188.22327"
       y2="213.36269"
       gradientTransform="matrix(0.86603,0.5,0.5,-0.86603,-259.05726,126.57948)"
       xlink:href="#a" />
    <linearGradient
       inkscape:collect="always"
       xlink:href="#a"
       id="linearGradient869"
       gradientUnits="userSpaceOnUse"
       gradientTransform="matrix(0.86603,0.5,0.5,-0.86603,-259.0599,126.58073)"
       x1="340.56577"
       y1="161.93886"
       x2="251.60893"
       y2="213.2971" />
  </defs>
  <path
     d="m -115.02281,170.07026 a 3.04629,3.04629 0 0 1 -2.99139,-3.07372 v -14.957 c 0,-5.26924 -1.70153,-9.77 -7.68432,-9.77 -5.98279,0 -7.7392,4.36358 -7.7392,9.68772 v 15.03929 a 3.07373,3.07373 0 1 1 -6.12,0 v -14.957 c 0,-5.07715 -1.50943,-9.77 -7.355,-9.77 -5.84557,0 -8.01364,4.1715 -8.01364,9.68772 v 15.03929 a 3.07373,3.07373 0 1 1 -6.12,0 v -27.444 a 2.74439,2.74439 0 0 1 2.7444,-2.7444 2.88161,2.88161 0 0 1 2.88162,2.7444 v 1.56433 a 10.97754,10.97754 0 0 1 9.46819,-4.3911 10.97754,10.97754 0 0 1 10.09938,5.4888 11.801,11.801 0 0 1 10.73061,-5.4888 c 8.59,0 13.228,5.4888 13.228,13.722 v 16.46638 a 3.07375,3.07375 0 0 1 -2.98975,3.1555 q -0.0694,0.002 -0.1389,5.9e-4 z"
     fill="#ffffff"
     id="path10" />
  <path
     d="m -65.157099,170.92101 a 17.39949,17.39949 0 0 1 -17.50911,-17.28917 l -1.4e-4,-0.028 a 17.51137,17.51137 0 1 1 17.50925,17.31717 z m 0,-28.65152 a 11.52676,11.52676 0 1 0 11.44413,11.47156 11.38923,11.38923 0 0 0 -11.3065,-11.4714 q -0.0688,-4.9e-4 -0.13763,-1.6e-4 z"
     fill="#ffffff"
     id="path12" />
  <path
     d="m 28.317121,170.07026 a 3.0463,3.0463 0 0 1 -2.99139,-3.07372 v -14.957 c 0,-5.26924 -1.70153,-9.77 -7.68432,-9.77 -5.98279,0 -7.7391996,4.36358 -7.7391996,9.68772 v 15.03929 a 3.07373,3.07373 0 1 1 -6.12,0 v -14.957 c 0,-5.07715 -1.50943,-9.77 -7.355,-9.77 -5.84557,0 -8.0136404,4.1715 -8.0136404,9.68772 v 15.03929 a 3.06,3.06 0 1 1 -6.12,0 v -27.444 a 2.74439,2.74439 0 0 1 2.7444,-2.7444 2.88161,2.88161 0 0 1 2.74439,2.7444 v 1.56433 a 12.06543,12.06543 0 0 1 19.4029004,1.12521 11.801,11.801 0 0 1 10.7306096,-5.4888 c 8.59,0 13.228,5.4888 13.228,13.722 v 16.46639 a 3.07374,3.07374 0 0 1 -2.82675,3.12857 z"
     fill="#ffffff"
     id="path14" />
  <path
     d="m 93.661241,156.45802 h -26.86765 a 10.97763,10.97763 0 0 0 10.59338,8.8644 10.64832,10.64832 0 0 0 9.11143,-5.15949 3.23836,3.23836 0 0 1 2.55227,-1.56432 2.74436,2.74436 0 0 1 2.74439,2.74439 1.83861,1.83861 0 0 1 -0.19212,0.85076 16.4664,16.4664 0 0 1 -14.51785,8.67231 16.93291,16.93291 0 0 1 -16.46639,-17.12506 16.563544,16.563544 0 1 1 33.12486,-0.38421 23.23964,23.23964 0 0 1 -0.0823,3.10122 z m -16.46634,-14.18853 a 10.37382,10.37382 0 0 0 -10.48363,9.49563 h 20.93973 a 10.4287,10.4287 0 0 0 -10.37383,-9.49563 z"
     fill="#ffffff"
     id="path16" />
  <path
     d="m 149.50976,170.07026 a 3.1012,3.1012 0 0 1 -3.04629,-3.07372 v -14.57277 c 0,-5.48879 -1.75641,-10.15426 -8.06853,-10.15426 -6.31212,0 -8.61741,4.69294 -8.61741,10.09936 v 14.62765 a 3.01884,3.01884 0 0 1 -6.03767,0.0101 v -27.4541 a 2.8816,2.8816 0 0 1 2.7444,-2.88163 3.18353,3.18353 0 0 1 3.18351,2.88163 v 1.482 a 11.55391,11.55391 0 0 1 9.24861,-4.36359 c 8.67231,0 13.55733,5.4888 13.55733,14.79231 v 15.4784 a 3.10117,3.10117 0 0 1 -2.96395,3.12858 z"
     fill="#ffffff"
     id="path18" />
  <path
     d="m 196.85063,143.31237 h -4.36358 v 23.68417 a 3.04631,3.04631 0 0 1 -2.99139,3.07372 3.211,3.211 0 0 1 -3.07371,-3.07372 v -23.68417 h -4.30873 a 2.90911,2.90911 0 0 1 -2.7444,-2.7444 2.74437,2.74437 0 0 1 2.7444,-2.74439 h 4.30873 v -7.82156 a 3.10117,3.10117 0 0 1 3.07371,-3.04628 2.964,2.964 0 0 1 2.99239,2.93523 q 5.7e-4,0.0555 -10e-4,0.11105 v 7.62943 h 4.36358 a 2.74437,2.74437 0 0 1 2.7444,2.7444 2.88163,2.88163 0 0 1 -2.7444,2.93652 z"
     fill="#ffffff"
     id="path20" />
  <path
     d="m 241.83132,170.92101 c -10.2366,0 -14.216,-6.12 -14.216,-15.75286 V 140.6503 a 3.06,3.06 0 1 1 6.12,0 v 14.51785 c 0,5.4888 1.83874,10.15427 8.23319,10.15427 6.39445,0 8.06854,-4.55572 8.06854,-10.15427 V 140.6503 a 3.07374,3.07374 0 0 1 3.04628,-3.07371 3.156,3.156 0 0 1 3.07372,3.07371 v 14.51785 c -0.13715,9.63282 -4.17147,15.75286 -14.32573,15.75286 z"
     fill="#ffffff"
     id="path22" />
  <path
     d="m 332.61602,170.07026 a 3.04631,3.04631 0 0 1 -2.99139,-3.07372 v -14.957 c 0,-5.26924 -1.67408,-9.77 -7.68432,-9.77 -6.01024,0 -7.73922,4.36358 -7.73922,9.68772 v 15.03929 a 3.07373,3.07373 0 1 1 -6.12,0 v -14.957 c 0,-5.07715 -1.482,-9.77 -7.355,-9.77 -5.873,0 -8.01364,4.1715 -8.01364,9.68772 v 15.03929 a 3.07372,3.07372 0 1 1 -6.12,0 v -27.444 a 2.7444,2.7444 0 1 1 5.48879,0 v 1.56433 a 12.06541,12.06541 0 0 1 19.40288,1.12521 11.82837,11.82837 0 0 1 10.7306,-5.4888 c 8.61741,0 13.228,5.4888 13.228,13.722 v 16.46639 a 3.07372,3.07372 0 0 1 -2.8267,3.12857 z"
     fill="#ffffff"
     id="path24" />
  <rect
     x="67.366951"
     y="56.346127"
     width="47.560429"
     height="111.23046"
     rx="23.7665"
     transform="rotate(-30)"
     fill="#ff0380"
     id="rect26" />
  <rect
     x="67.388054"
     y="56.527233"
     width="47.560429"
     height="111.23046"
     rx="23.7665"
     transform="rotate(-30)"
     fill="url(#a)"
     id="rect28"
     style="fill:url(#linearGradient869)" />
  <rect
     x="-48.555676"
     y="91.226639"
     width="111.23046"
     height="47.560429"
     rx="23.7665"
     transform="rotate(-60)"
     fill="#ff0380"
     id="rect30" />
  <rect
     x="12.476217"
     y="24.654951"
     width="47.560429"
     height="111.23046"
     rx="23.7665"
     transform="rotate(-30)"
     fill="#ff0380"
     id="rect32" />
  <rect
     x="12.534765"
     y="24.77107"
     width="47.560429"
     height="111.23046"
     rx="23.7665"
     transform="rotate(-30)"
     fill="url(#b)"
     id="rect34"
     style="fill:url(#b)" />
  <rect
     x="-80.24633"
     y="36.309284"
     width="111.23046"
     height="47.560429"
     rx="23.7665"
     transform="rotate(-60)"
     fill="#ff0380"
     id="rect36" />
</svg>
