<svg xmlns="http://www.w3.org/2000/svg" viewBox="0 0 800.002 800"><path d="M776.863 343.724l-316.69-320-.15-.138c-1.384-1.386-2.853-2.68-4.332-3.958-.48-.422-.926-.882-1.415-1.29A79.617 79.617 0 00412.47.56l-.862-.132c-.965-.094-1.961-.094-2.942-.161-1.642-.111-3.281-.26-4.94-.27h-.416a79.102 79.102 0 00-7.96.4c-1.734.172-3.43.477-5.137.763-.858.142-1.734.22-2.587.4-2.06.408-4.065.944-6.065 1.509-.488.136-.989.229-1.468.376-2.035.617-4.012 1.356-5.971 2.129-.451.176-.91.315-1.357.5-1.853.762-3.649 1.64-5.431 2.544-.537.268-1.094.5-1.625.785-1.635.87-3.2 1.845-4.76 2.823-.647.406-1.314.763-1.953 1.185-1.438.96-2.8 2.01-4.164 3.059-.7.537-1.435 1.02-2.118 1.585-1.355 1.1-2.62 2.306-3.91 3.5-.574.54-1.2 1.027-1.766 1.59l-.259.26-.064.058L23.727 343.139A80 80 0 00136.28 456.857l187.036-185.114V720a80 80 0 00159.993 1.492q.007-.746 0-1.492V274.566l179.826 181.707a80 80 0 10113.724-112.55"/></svg>