<svg xmlns="http://www.w3.org/2000/svg" viewBox="0 0 800 800"><path d="M168.213 214.248a90.247 90.247 0 01127.615-1.886q.956.929 1.885 1.886l52.238 52.936a70.5 70.5 0 0050.175 21h.008a70.5 70.5 0 0050.176-21l51.921-52.6a90.233 90.233 0 01127.595-1.906q.967.939 1.905 1.906c36.2 36.679 36.2 96.364 0 133.044L399.864 582.57l-231.6-235.218c-36.19-36.75-36.218-96.458-.049-133.1m563.875-99.526c-44.16-44.75-102.8-69.394-165.11-69.394S446.026 69.98 401.871 114.724l-1.735 1.755-2.066-2.088c-44.162-44.751-102.8-69.388-165.11-69.388s-120.945 24.645-165.109 69.39c-90.449 91.655-90.473 240.909-.057 332.706L349.57 733.273a70.5 70.5 0 0050.195 21.063h.042a70.506 70.506 0 0050.18-21l282.1-285.844c90.547-91.741 90.547-241.018 0-332.761"/><path d="M168.213 214.248a90.247 90.247 0 01127.615-1.886q.956.929 1.885 1.886l52.238 52.936a70.5 70.5 0 0050.175 21h.008a70.5 70.5 0 0050.176-21l51.921-52.6a90.233 90.233 0 01127.595-1.906q.967.939 1.905 1.906c36.2 36.679 36.2 96.364 0 133.044L399.864 582.57l-231.6-235.218c-36.19-36.75-36.218-96.458-.049-133.1m563.875-99.526c-44.16-44.75-102.8-69.394-165.11-69.394S446.026 69.98 401.871 114.724l-1.735 1.755-2.066-2.088c-44.162-44.751-102.8-69.388-165.11-69.388s-120.945 24.645-165.109 69.39c-90.449 91.655-90.473 240.909-.057 332.706L349.57 733.273a70.5 70.5 0 0050.195 21.063h.042a70.506 70.506 0 0050.18-21l282.1-285.844c90.547-91.741 90.547-241.018 0-332.761"/></svg>