<svg xmlns="http://www.w3.org/2000/svg" viewBox="0 0 222 30"><path d="M126.1 25.3c-3.4 0-6.1-2.8-6.2-6.2v-8.7h6.2c1.1 0 2-.9 2-2s-.9-2-2-2H120V2c0-1.1-.9-2-2-2s-2 .9-2 2v17.2c0 5.6 4.5 10.2 10.1 10.2 1.1 0 2-.9 2-2s-.9-2.1-2-2.1M105 28V17.1c0-3.4 2.8-6.2 6.2-6.2 1.1 0 2-.9 2-2s-.9-2-2-2c-5.6 0-10.1 4.6-10.1 10.2V28c0 1.1.9 2 2 2 1 0 1.9-.9 1.9-2M86.9 10.7c3 0 5.7 2 6.6 4.9H80.3c.9-2.9 3.6-4.9 6.6-4.9m9 15.9c.8-.8.8-2 0-2.8-.8-.8-2-.8-2.8 0-3 3-7.8 3-10.8 0-1.1-1.1-1.9-2.6-2.1-4.2h15.7c1.1 0 2-.9 2-2 0-6-4.9-10.9-10.9-10.9s-10.9 4.9-10.9 10.9v.8C76 24.8 81.2 30 87.7 30c3.1 0 6-1.2 8.2-3.4M42.3 10.7c3 0 5.7 2 6.6 4.9H35.7c.9-2.9 3.6-4.9 6.6-4.9m9 15.9c.8-.8.8-2 0-2.8-.8-.8-2-.8-2.8 0-3 3-7.8 3-10.8 0-1.1-1.1-1.9-2.6-2.1-4.2h15.7c1.1 0 2-.9 2-2 0-6-4.9-10.9-10.9-10.9s-10.9 4.9-10.9 10.9v.8c0 6.4 5.2 11.7 11.6 11.7 3.1-.1 6-1.3 8.2-3.5M211.9 7.2c-2.2 0-4.4.7-6.2 2.1V2c0-1.1-.9-2-2-2s-2 .9-2 2v26c0 1.1.9 2 2 2s2-.9 2-2V17.3c-.1-3.4 2.6-6.2 6-6.3 3.4-.1 6.2 2.6 6.3 6v11c0 1.1.9 2 2 2s2-.9 2-2V17.3c0-5.6-4.5-10.1-10.1-10.1m-36.5 12.6V9c0-1.1-.9-2-2-2s-2 .9-2 2v10.9c.1 3.4-2.6 6.2-6 6.3-3.4.1-6.2-2.6-6.3-6V9c0-1.1-.9-2-2-2s-2 .9-2 2v10.9c0 5.6 4.5 10.2 10.1 10.2 5.6-.1 10.1-4.6 10.2-10.3m-28.9-6.9c3 3 3 7.8 0 10.8-3 3-7.8 3-10.8 0-3-3-3-7.8 0-10.8 1.4-1.4 3.4-2.2 5.4-2.2 2 0 4 .8 5.4 2.2m2.9 13.7c4.6-4.5 4.6-11.9 0-16.5s-11.9-4.6-16.5 0c-4.6 4.5-4.6 11.9 0 16.5 2.2 2.2 5.2 3.4 8.2 3.4 3.1 0 6.1-1.2 8.3-3.4M73.8 6.8c-1-.4-2.2 0-2.6 1l-6.5 15-6.5-15c-.4-1-1.6-1.5-2.6-1.1-1 .4-1.5 1.6-1.1 2.6l8.3 19.3c0 .1.1.2.2.3.1.1.1.2.2.2 0 0 0 .1.1.1l.2.2.1.1c.1.1.2.1.3.2.1 0 .2.1.3.1h.8c.1 0 .2-.1.3-.1h.1c.1 0 .2-.1.3-.2l.1-.1.2-.2s.1 0 .1-.1l.2-.2c.1-.1.1-.2.2-.3l8.3-19.3c.5-.9 0-2.1-1-2.5M28.1 28V2c0-1.1-.9-2-2-2s-2 .9-2 2v26c0 1.1.9 2 2 2s1.9-.9 2-2m169.6-1.4c.8-.8.8-2 0-2.8-.8-.8-2-.8-2.8 0-3 3-7.8 3-10.8 0-3-3-3-7.8 0-10.8 3-3 7.8-3 10.8 0 .8.8 2 .8 2.8 0s.8-2 0-2.8c-4.6-4.5-11.9-4.5-16.5 0-4.5 4.6-4.5 11.9 0 16.5 4.6 4.4 12 4.4 16.5-.1M11.6 30C5.2 30 0 24.8 0 18.3S5.2 6.7 11.7 6.7c3.1 0 6 1.2 8.2 3.4.8.8.8 2 0 2.8s-2 .8-2.8 0c-3-3-7.8-3-10.8 0s-3 7.8 0 10.8c3 3 7.8 3 10.8 0 .8-.8 2-.8 2.8 0 .8.8.8 2 0 2.8-2.2 2.3-5.2 3.5-8.3 3.5" fill="#fff"/></svg>