<svg xmlns="http://www.w3.org/2000/svg" viewBox="0 0 444.117 53.2"><path d="M88.714 7.919a2.2 2.2 0 012.46-2.52h2.64a2.2 2.2 0 012.46 2.52v29.94a6.473 6.473 0 00.21 1.83 2.752 2.752 0 00.57 1.08 1.969 1.969 0 00.78.54 4.3 4.3 0 00.84.21 2.308 2.308 0 011.35.63 2.078 2.078 0 01.51 1.53v2.04a2.881 2.881 0 01-.57 1.89 2.4 2.4 0 01-1.95.69 17.44 17.44 0 01-3.18-.3 6.97 6.97 0 01-5.25-4.29 13.1 13.1 0 01-.87-5.25zm14.7 24.78a15.7 15.7 0 011.32-6.45 15.186 15.186 0 013.6-5.07 16.9 16.9 0 015.34-3.3 18.422 18.422 0 0113.08 0 17.274 17.274 0 015.37 3.3 14.987 14.987 0 013.63 5.07 15.7 15.7 0 011.32 6.45 15.64 15.64 0 01-1.32 6.48 15.39 15.39 0 01-3.63 5.07 16.558 16.558 0 01-5.37 3.3 18.863 18.863 0 01-13.08 0 16.213 16.213 0 01-5.34-3.3 15.516 15.516 0 01-4.92-11.55zm7.74 0a10.113 10.113 0 00.72 3.9 9.37 9.37 0 001.95 3 8.638 8.638 0 002.88 1.95 9.09 9.09 0 009.93-1.95 9.122 9.122 0 001.98-3 10.841 10.841 0 000-7.77 9.106 9.106 0 00-11.91-4.98 8.638 8.638 0 00-2.88 1.95 9.294 9.294 0 00-1.95 3.03 10.175 10.175 0 00-.72 3.87zm28.56-12.42a2.234 2.234 0 01.06-2.1 2.172 2.172 0 011.92-.78h2.82a2.662 2.662 0 012.82 2.1l5.7 16.86a11.4 11.4 0 01.42 1.5q.18.84.36 1.5.18.84.36 1.62h.12q.12-.78.3-1.62.12-.66.33-1.5a15.209 15.209 0 01.45-1.5l5.7-16.86a2.662 2.662 0 012.82-2.1h2.82a2.257 2.257 0 011.95.78 2.169 2.169 0 01.09 2.1l-9.24 25.68a2.709 2.709 0 01-2.82 2.04h-4.8a2.652 2.652 0 01-2.82-2.04zm31.86 12.42a17.782 17.782 0 011.14-6.48 15.158 15.158 0 013.18-5.07 14.026 14.026 0 014.92-3.3 16.584 16.584 0 016.3-1.17 14.374 14.374 0 015.79 1.11 12.052 12.052 0 014.26 3.03 13.056 13.056 0 012.61 4.62 18.294 18.294 0 01.9 5.82 2.612 2.612 0 01-2.64 2.58h-18.66a9.668 9.668 0 00.99 3.66 8.367 8.367 0 004.86 4.2 10.284 10.284 0 003.33.54 10.505 10.505 0 003.81-.66 17.563 17.563 0 002.79-1.32 3.077 3.077 0 011.95-.36 2.285 2.285 0 011.41 1.2l.72 1.2a2.247 2.247 0 01-.84 3.36 25.113 25.113 0 01-4.14 2.01 16.845 16.845 0 01-6.24 1.05 17.446 17.446 0 01-6.84-1.29 15.579 15.579 0 01-5.19-3.48 15.169 15.169 0 01-3.27-5.1 16.709 16.709 0 01-1.14-6.15zm21.54-3.48a7.329 7.329 0 00-1.83-5.01 5.788 5.788 0 00-4.35-1.77 6.8 6.8 0 00-4.89 1.86 8.659 8.659 0 00-2.49 4.92zm28.08-9.3a2.2 2.2 0 012.46-2.52h2.34a2.2 2.2 0 012.46 2.52v1.86a4.383 4.383 0 01-.03.54 3.44 3.44 0 00-.03.42 1.763 1.763 0 00-.06.42h.12a10.639 10.639 0 011.5-2.28 12.403 12.403 0 015.13-3.6 9.522 9.522 0 013.39-.6q7.02 0 8.94 6.3h.12a10.225 10.225 0 011.65-2.34 12.31 12.31 0 012.4-2.01 13.106 13.106 0 012.97-1.41 10.744 10.744 0 013.42-.54q4.8 0 7.41 2.79t2.61 8.85v17.16a2.227 2.227 0 01-2.52 2.52h-2.58a2.227 2.227 0 01-2.52-2.52v-15.72a18.208 18.208 0 00-.15-2.43 5.417 5.417 0 00-.6-1.92 3.332 3.332 0 00-1.29-1.29 4.318 4.318 0 00-2.16-.48 6.361 6.361 0 00-3.39.9 7.818 7.818 0 00-2.46 2.4 10.994 10.994 0 00-1.47 3.42 16.02 16.02 0 00-.48 3.9v11.22a2.2 2.2 0 01-2.46 2.52h-2.64a2.227 2.227 0 01-2.52-2.52v-15.72a22.095 22.095 0 00-.12-2.37 5.3 5.3 0 00-.57-1.95 3.335 3.335 0 00-1.26-1.32 4.148 4.148 0 00-2.13-.48 6.428 6.428 0 00-3.51.93 8.019 8.019 0 00-2.46 2.46 11.419 11.419 0 00-1.47 3.42 15.421 15.421 0 00-.48 3.81v11.22a2.2 2.2 0 01-2.46 2.52h-2.64a2.2 2.2 0 01-2.46-2.52zm51.54 19.62a8.425 8.425 0 01.84-3.87 8.654 8.654 0 012.28-2.82 12.268 12.268 0 013.27-1.89 23.975 23.975 0 013.81-1.14 29.981 29.981 0 013.96-.57q1.98-.15 3.72-.15h1.26v-.72q0-3-1.68-4.2a6.734 6.734 0 00-4.02-1.2 11.132 11.132 0 00-3.6.57 17.058 17.058 0 00-2.76 1.17q-2.34 1.02-3.36-1.02l-.6-1.14a2.215 2.215 0 01.96-3.36 30.2 30.2 0 014.05-1.65 18.506 18.506 0 015.97-.87q6 0 9.33 3.18t3.33 9v16.62a2.227 2.227 0 01-2.52 2.52h-2.04a2.2 2.2 0 01-2.46-2.52v-1.2a4.847 4.847 0 01.06-.96.836.836 0 01.06-.36h-.12a11.323 11.323 0 01-2.28 2.88 13.456 13.456 0 01-3 1.98 9.568 9.568 0 01-4.32.9 11.5 11.5 0 01-3.93-.66 10.017 10.017 0 01-3.21-1.86 8.887 8.887 0 01-2.19-2.88 8.593 8.593 0 01-.81-3.78zm7.56-.66a3.942 3.942 0 001.17 2.79 4.542 4.542 0 003.45 1.23 5.868 5.868 0 002.91-.72 7.1 7.1 0 002.19-1.89 9.392 9.392 0 001.41-2.61 8.416 8.416 0 00.51-2.82v-1.14h-1.26q-1.44 0-3.24.18a15.218 15.218 0 00-3.39.72 7.2 7.2 0 00-2.67 1.56 3.54 3.54 0 00-1.08 2.7zm26.28-18.96a2.2 2.2 0 012.46-2.52h2.34a2.227 2.227 0 012.52 2.52v2.88q0 .48-.03.84a5.862 5.862 0 01-.09.66 3.053 3.053 0 00-.06.6h.12a12.457 12.457 0 013.27-5.25 10.33 10.33 0 012.58-1.8 6.8 6.8 0 013.03-.69 2.162 2.162 0 011.77.63 2.96 2.96 0 01.51 1.89v2.34a2.254 2.254 0 01-2.58 2.52 6.842 6.842 0 00-3.66.96 8.164 8.164 0 00-2.58 2.52 11.787 11.787 0 00-1.53 3.54 16.29 16.29 0 00-.51 4.08v9.84a2.2 2.2 0 01-2.46 2.52h-2.64a2.2 2.2 0 01-2.46-2.52zm24.18 3.96h-1.62a2.2 2.2 0 01-2.46-2.52v-1.02a2.227 2.227 0 012.52-2.52h1.74v-6.24a2.227 2.227 0 012.52-2.52h2.4a2.227 2.227 0 012.52 2.52v6.24h4.44a2.227 2.227 0 012.52 2.52v1.02a2.2 2.2 0 01-2.46 2.52h-4.5v11.88a6.79 6.79 0 00.48 2.79 4.894 4.894 0 001.2 1.68 4.359 4.359 0 001.59.9 7.531 7.531 0 001.65.33 3.233 3.233 0 011.95.66 2.4 2.4 0 01.57 1.8v1.86a2.257 2.257 0 01-.78 1.95 3.957 3.957 0 01-2.34.57 15.339 15.339 0 01-4.17-.6 11.183 11.183 0 01-3.84-1.92 10.274 10.274 0 01-2.82-3.45 11.264 11.264 0 01-1.11-5.25zm18.06 8.82a17.783 17.783 0 011.14-6.48 15.16 15.16 0 013.18-5.07 14.026 14.026 0 014.92-3.3 16.584 16.584 0 016.3-1.17 14.374 14.374 0 015.79 1.11 12.052 12.052 0 014.26 3.03 13.056 13.056 0 012.61 4.62 18.295 18.295 0 01.9 5.82 2.612 2.612 0 01-2.64 2.58h-18.66a9.667 9.667 0 00.99 3.66 8.367 8.367 0 004.86 4.2 10.284 10.284 0 003.33.54 10.505 10.505 0 003.81-.66 17.561 17.561 0 002.79-1.32 3.077 3.077 0 011.95-.36 2.285 2.285 0 011.41 1.2l.72 1.2a2.247 2.247 0 01-.84 3.36 25.112 25.112 0 01-4.14 2.01 16.845 16.845 0 01-6.24 1.05 17.446 17.446 0 01-6.84-1.29 15.579 15.579 0 01-5.19-3.48 15.17 15.17 0 01-3.27-5.1 16.709 16.709 0 01-1.14-6.15zm21.54-3.48a7.329 7.329 0 00-1.83-5.01 5.788 5.788 0 00-4.35-1.77 6.8 6.8 0 00-4.89 1.86 8.659 8.659 0 00-2.49 4.92zm11.16 3.48a16.33 16.33 0 011.17-6.15 15.325 15.325 0 013.33-5.1 15.844 15.844 0 015.25-3.48 17.668 17.668 0 016.87-1.29 15.809 15.809 0 016.18 1.05 22.064 22.064 0 013.84 2.01 2.15 2.15 0 011.05 1.53 2.95 2.95 0 01-.57 1.89l-.78 1.2a2.115 2.115 0 01-1.47 1.11 3.462 3.462 0 01-1.89-.45 12.7 12.7 0 00-2.46-1.26 9.326 9.326 0 00-3.48-.6 9.6 9.6 0 00-3.84.75 8.611 8.611 0 00-2.94 2.04 9.242 9.242 0 00-1.86 3 10.561 10.561 0 000 7.35 9.254 9.254 0 001.89 3.06 9.007 9.007 0 003 2.1 10.672 10.672 0 008.01 0 16.164 16.164 0 002.82-1.56q2.28-1.26 3.42.78l.6 1.14a2.3 2.3 0 01-.66 3.36 18.872 18.872 0 01-1.74 1.14 16.89 16.89 0 01-2.4 1.14 19.772 19.772 0 01-3.06.9 17.472 17.472 0 01-3.66.36 18.038 18.038 0 01-6.87-1.26 15.707 15.707 0 01-5.25-3.42 15 15 0 01-3.33-5.07 16.65 16.65 0 01-1.17-6.27zm33.72-24.78a2.227 2.227 0 012.52-2.52h2.58a2.227 2.227 0 012.52 2.52v12.36q0 .6-.03 1.05t-.09.81a5.198 5.198 0 00-.06.72h.12a10.162 10.162 0 011.53-2.19 12.123 12.123 0 012.34-2.01 11.99 11.99 0 013.06-1.44 12.191 12.191 0 013.69-.54q5.1 0 7.89 2.76t2.79 8.88v17.16a2.227 2.227 0 01-2.52 2.52h-2.58a2.227 2.227 0 01-2.52-2.52v-15.6a9.234 9.234 0 00-.96-4.53q-.96-1.71-3.84-1.71a8.386 8.386 0 00-3.63.78 8.174 8.174 0 00-2.79 2.13 9.777 9.777 0 00-1.77 3.21 12.453 12.453 0 00-.63 4.02v11.7a2.227 2.227 0 01-2.52 2.52h-2.58a2.227 2.227 0 01-2.52-2.52z" fill="#fff"/><path d="M12.61 12.693a6.768 6.768 0 019.57-.143q.073.07.143.143l3.918 3.97a5.288 5.288 0 003.763 1.575 5.288 5.288 0 003.763-1.575l3.894-3.945a6.767 6.767 0 019.569-.143q.072.07.143.143a7.13 7.13 0 010 9.978l-17.39 17.62-17.37-17.64a7.138 7.138 0 010-9.983m42.29-7.464a17.334 17.334 0 00-24.512-.253q-.128.125-.253.253l-.13.132-.155-.157a17.335 17.335 0 00-24.514-.252q-.127.125-.252.252a17.844 17.844 0 000 24.953L26.22 51.62a5.287 5.287 0 003.765 1.58 5.288 5.288 0 003.763-1.575l21.157-21.438a17.833 17.833 0 000-24.957" fill="#e72176"/><path d="M12.61 12.693a6.768 6.768 0 019.57-.143q.073.07.143.143l3.918 3.97a5.288 5.288 0 003.763 1.575 5.288 5.288 0 003.763-1.575l3.894-3.945a6.767 6.767 0 019.569-.143q.072.07.143.143a7.13 7.13 0 010 9.978l-17.39 17.62-17.37-17.64a7.138 7.138 0 010-9.983m42.29-7.464a17.334 17.334 0 00-24.512-.253q-.128.125-.253.253l-.13.132-.155-.157a17.335 17.335 0 00-24.514-.252q-.127.125-.252.252a17.844 17.844 0 000 24.953L26.22 51.62a5.287 5.287 0 003.765 1.58 5.288 5.288 0 003.763-1.575l21.157-21.438a17.833 17.833 0 000-24.957" fill="#e72176"/></svg>