<svg xmlns="http://www.w3.org/2000/svg" xmlns:xlink="http://www.w3.org/1999/xlink" width="174.749" height="102.91"><defs><linearGradient id="a" x1="340.566" y1="161.939" x2="251.609" y2="213.297" gradientTransform="scale(1 -1) rotate(-30 -150.146 68.054)" gradientUnits="userSpaceOnUse"><stop offset=".3" stop-color="#ff0380"/><stop offset="1"/></linearGradient><linearGradient id="c" x1="277.183" y1="162.018" x2="188.223" y2="213.363" gradientTransform="scale(1 -1) rotate(-30 -365.729 420.118)" xlink:href="#a"/><linearGradient xlink:href="#a" id="b" gradientUnits="userSpaceOnUse" gradientTransform="scale(1 -1) rotate(-30 -365.732 420.123)" x1="340.566" y1="161.939" x2="251.609" y2="213.297"/></defs><path d="M-115.023 170.07a3.046 3.046 0 01-2.991-3.073V152.04c0-5.27-1.702-9.77-7.685-9.77-5.982 0-7.739 4.363-7.739 9.687v15.04a3.074 3.074 0 11-6.12 0V152.04c0-5.078-1.51-9.77-7.355-9.77-5.845 0-8.013 4.171-8.013 9.687v15.04a3.074 3.074 0 11-6.12 0v-27.444a2.744 2.744 0 012.744-2.745 2.882 2.882 0 012.882 2.745v1.564a10.978 10.978 0 019.468-4.391 10.978 10.978 0 0110.1 5.489 11.801 11.801 0 0110.73-5.49c8.59 0 13.228 5.49 13.228 13.723v16.466a3.074 3.074 0 01-2.99 3.156q-.07.002-.139 0zm49.866.851a17.4 17.4 0 01-17.51-17.29v-.027a17.511 17.511 0 1117.51 17.317zm0-28.652a11.527 11.527 0 1011.444 11.472 11.39 11.39 0 00-11.306-11.471h-.138zm93.474 27.801a3.046 3.046 0 01-2.991-3.073V152.04c0-5.27-1.702-9.77-7.685-9.77-5.982 0-7.739 4.363-7.739 9.687v15.04a3.074 3.074 0 11-6.12 0V152.04c0-5.078-1.51-9.77-7.355-9.77-5.845 0-8.013 4.171-8.013 9.687v15.04a3.06 3.06 0 11-6.12 0v-27.444a2.744 2.744 0 012.744-2.745 2.882 2.882 0 012.744 2.745v1.564a12.065 12.065 0 0119.403 1.125 11.801 11.801 0 0110.73-5.489c8.59 0 13.229 5.49 13.229 13.722v16.467a3.074 3.074 0 01-2.827 3.128zm65.344-13.612H66.794a10.978 10.978 0 0010.593 8.864 10.648 10.648 0 009.111-5.16 3.238 3.238 0 012.553-1.563 2.744 2.744 0 012.744 2.744 1.839 1.839 0 01-.192.85 16.466 16.466 0 01-14.518 8.673 16.933 16.933 0 01-16.466-17.125 16.564 16.564 0 1133.125-.384 23.24 23.24 0 01-.083 3.101zm-16.466-14.189a10.374 10.374 0 00-10.484 9.496h20.94a10.429 10.429 0 00-10.374-9.496zm72.315 27.801a3.101 3.101 0 01-3.047-3.073v-14.573c0-5.489-1.756-10.154-8.068-10.154-6.312 0-8.617 4.692-8.617 10.099v14.628a3.019 3.019 0 01-6.038.01v-27.454a2.882 2.882 0 012.744-2.882 3.184 3.184 0 013.184 2.882v1.482a11.554 11.554 0 019.248-4.364c8.673 0 13.558 5.489 13.558 14.792v15.479a3.101 3.101 0 01-2.964 3.128zm47.34-26.758h-4.363v23.685a3.046 3.046 0 01-2.991 3.073 3.211 3.211 0 01-3.074-3.073v-23.685h-4.309a2.91 2.91 0 01-2.744-2.744 2.744 2.744 0 012.744-2.744h4.309v-7.822a3.101 3.101 0 013.074-3.046 2.964 2.964 0 012.992 2.935l-.001.111v7.63h4.364a2.744 2.744 0 012.744 2.744 2.882 2.882 0 01-2.744 2.936zm44.981 27.609c-10.236 0-14.216-6.12-14.216-15.753V140.65a3.06 3.06 0 116.12 0v14.518c0 5.489 1.84 10.154 8.234 10.154s8.068-4.555 8.068-10.154V140.65a3.074 3.074 0 013.046-3.073 3.156 3.156 0 013.074 3.073v14.518c-.137 9.633-4.171 15.753-14.326 15.753zm90.785-.851a3.046 3.046 0 01-2.991-3.073V152.04c0-5.27-1.674-9.77-7.685-9.77-6.01 0-7.739 4.363-7.739 9.687v15.04a3.074 3.074 0 11-6.12 0V152.04c0-5.078-1.482-9.77-7.355-9.77s-8.014 4.171-8.014 9.687v15.04a3.074 3.074 0 11-6.12 0v-27.444a2.744 2.744 0 115.49 0v1.564a12.065 12.065 0 0119.402 1.125 11.828 11.828 0 0110.73-5.489c8.618 0 13.229 5.49 13.229 13.722v16.467a3.074 3.074 0 01-2.827 3.128z" fill="#fff"/><rect x="67.367" y="56.346" width="47.56" height="111.23" rx="23.767" transform="rotate(-30)" fill="#ff0380"/><rect x="67.388" y="56.527" width="47.56" height="111.23" rx="23.767" transform="rotate(-30)" fill="url(#b)"/><rect x="-48.556" y="91.227" width="111.23" height="47.56" rx="23.767" transform="rotate(-60)" fill="#ff0380"/><rect x="12.476" y="24.655" width="47.56" height="111.23" rx="23.767" transform="rotate(-30)" fill="#ff0380"/><rect x="12.535" y="24.771" width="47.56" height="111.23" rx="23.767" transform="rotate(-30)" fill="url(#c)"/><rect x="-80.246" y="36.309" width="111.23" height="47.56" rx="23.767" transform="rotate(-60)" fill="#ff0380"/></svg>