<svg xmlns="http://www.w3.org/2000/svg" xmlns:xlink="http://www.w3.org/1999/xlink" viewBox="0 0 496.504 170.905"><defs><linearGradient id="a" x1="340.566" y1="161.939" x2="251.609" y2="213.297" gradientTransform="scale(1 -1) rotate(-30 -150.146 68.054)" gradientUnits="userSpaceOnUse"><stop offset=".3" stop-color="#ff0380"/><stop offset="1"/></linearGradient><linearGradient id="b" x1="277.183" y1="162.018" x2="188.223" y2="213.363" gradientTransform="scale(1 -1) rotate(-30 -213.525 68.125)" xlink:href="#a"/></defs><path d="M46.037 170.053a3.046 3.046 0 01-2.991-3.073v-14.957c0-5.27-1.702-9.77-7.684-9.77s-7.74 4.363-7.74 9.687v15.04a3.074 3.074 0 11-6.12 0v-14.957c0-5.077-1.51-9.77-7.355-9.77s-8.013 4.171-8.013 9.688v15.039a3.074 3.074 0 11-6.12 0v-27.444a2.744 2.744 0 012.744-2.745 2.882 2.882 0 012.882 2.745v1.564a10.978 10.978 0 019.468-4.391 10.978 10.978 0 0110.1 5.489 11.801 11.801 0 0110.73-5.489c8.59 0 13.228 5.489 13.228 13.722v16.466a3.074 3.074 0 01-2.99 3.156q-.07.002-.139 0zm49.866.851a17.4 17.4 0 01-17.51-17.289v-.028a17.511 17.511 0 1117.51 17.317zm0-28.651a11.527 11.527 0 1011.444 11.471 11.39 11.39 0 00-11.306-11.471h-.138zm93.474 27.8a3.046 3.046 0 01-2.991-3.073v-14.957c0-5.27-1.702-9.77-7.684-9.77s-7.74 4.363-7.74 9.687v15.04a3.074 3.074 0 11-6.12 0v-14.957c0-5.077-1.51-9.77-7.355-9.77s-8.013 4.171-8.013 9.688v15.039a3.06 3.06 0 11-6.12 0v-27.444a2.744 2.744 0 012.744-2.745 2.882 2.882 0 012.744 2.745v1.564a12.065 12.065 0 0119.403 1.125 11.801 11.801 0 0110.731-5.488c8.59 0 13.228 5.488 13.228 13.722v16.466a3.074 3.074 0 01-2.827 3.128zm65.344-13.612h-26.867a10.978 10.978 0 0010.593 8.865 10.648 10.648 0 009.111-5.16 3.238 3.238 0 012.553-1.564 2.744 2.744 0 012.744 2.744 1.839 1.839 0 01-.192.851 16.466 16.466 0 01-14.518 8.672 16.933 16.933 0 01-16.466-17.125 16.564 16.564 0 1133.125-.384 23.24 23.24 0 01-.083 3.101zm-16.466-14.188a10.374 10.374 0 00-10.484 9.495h20.94a10.429 10.429 0 00-10.374-9.495zm72.315 27.8a3.101 3.101 0 01-3.046-3.073v-14.573c0-5.489-1.757-10.154-8.069-10.154s-8.617 4.693-8.617 10.1v14.627a3.019 3.019 0 01-6.038.01v-27.454a2.882 2.882 0 012.744-2.882 3.184 3.184 0 013.184 2.882v1.482a11.554 11.554 0 019.248-4.364c8.673 0 13.558 5.489 13.558 14.793v15.478a3.101 3.101 0 01-2.964 3.128zm47.34-26.757h-4.363v23.684a3.046 3.046 0 01-2.991 3.073 3.211 3.211 0 01-3.074-3.073v-23.684h-4.309a2.91 2.91 0 01-2.744-2.745 2.744 2.744 0 012.744-2.744h4.309v-7.822a3.101 3.101 0 013.074-3.046 2.964 2.964 0 012.992 2.935v7.741h4.363a2.744 2.744 0 012.744 2.744 2.882 2.882 0 01-2.744 2.937zm44.981 27.608c-10.236 0-14.216-6.12-14.216-15.753v-14.517a3.06 3.06 0 116.12 0v14.517c0 5.49 1.84 10.155 8.234 10.155s8.068-4.556 8.068-10.155v-14.517a3.074 3.074 0 013.046-3.074 3.156 3.156 0 013.074 3.074v14.517c-.137 9.633-4.171 15.753-14.326 15.753zm90.785-.851a3.046 3.046 0 01-2.991-3.073v-14.957c0-5.27-1.674-9.77-7.685-9.77s-7.739 4.363-7.739 9.687v15.04a3.074 3.074 0 11-6.12 0v-14.957c0-5.077-1.482-9.77-7.355-9.77s-8.013 4.171-8.013 9.688v15.039a3.074 3.074 0 11-6.12 0v-27.444a2.744 2.744 0 115.488 0v1.564a12.065 12.065 0 0119.403 1.125 11.828 11.828 0 0110.73-5.488c8.618 0 13.229 5.488 13.229 13.722v16.466a3.074 3.074 0 01-2.827 3.128z" fill="#fff"/><rect x="272.196" y="-4.244" width="47.56" height="111.23" rx="23.767" transform="rotate(-30 295.977 51.371)" fill="#ff0380"/><rect x="272.305" y="-4.098" width="47.56" height="111.23" rx="23.767" transform="rotate(-30 296.085 51.517)" fill="url(#a)"/><rect x="208.574" y="27.593" width="111.23" height="47.56" rx="23.767" transform="rotate(-60 264.189 51.373)" fill="#ff0380"/><rect x="208.814" y="-4.244" width="47.56" height="111.23" rx="23.767" transform="rotate(-30 232.594 51.371)" fill="#ff0380"/><rect x="208.923" y="-4.173" width="47.56" height="111.23" rx="23.767" transform="rotate(-30 232.703 51.442)" fill="url(#b)"/><rect x="145.168" y="27.579" width="111.23" height="47.56" rx="23.767" transform="rotate(-60 200.784 51.36)" fill="#ff0380"/></svg>